<svg version="1.2" xmlns="http://www.w3.org/2000/svg" viewBox="0 0 255 240" width="255" height="240">
	<title>file</title>
	<style>
		.s0 { fill: #fffbfc } 
	</style>
	<path class="s0" d="m0 63.2c0-21.4 0-42.1 0-63.2 85.3 0 169.9 0 255 0 0 79.9 0 159.8 0 240-84.8 0-169.4 0-255 0 0-58.7 0-117.4 0-176.8zm77.8 145c47.7 0 95.4 0 144.3 0 0-58.5 0-116.2 0-175-47.1 0-94.7 0-143.1 0 29.3 28.1 58.3 56 86.6 83.1-20.3 20.3-40.4 40.4-60.6 60.6-7.4-6.9-15.3-14.2-23.5-21.8 12.8-11.6 25.1-22.7 37.7-34.1-29.6-28.4-58.8-56.4-88-84.3q-0.8 0.4-1.6 0.7c0 56.8 0 113.6 0 170.8 15.5 0 31.2 0 48.2 0z"/>
</svg>